<?xml version="1.0" encoding="utf-8"?>
<!-- Generator: Adobe Illustrator 16.0.0, SVG Export Plug-In . SVG Version: 6.00 Build 0)  -->
<!DOCTYPE svg PUBLIC "-//W3C//DTD SVG 1.1//EN" "http://www.w3.org/Graphics/SVG/1.1/DTD/svg11.dtd">
<svg version="1.1" xmlns="http://www.w3.org/2000/svg" xmlns:xlink="http://www.w3.org/1999/xlink" x="0px" y="0px" width="35px"
	 height="35px" viewBox="0 0 35 35" enable-background="new 0 0 35 35" xml:space="preserve">
<g id="RATON" display="none">
	<g display="inline">
		<path fill-rule="evenodd" clip-rule="evenodd" d="M17.762,0.729c1.289-0.046,1.501,0.049,1.853,0.103
			c3.979,0.598,6.707,2.775,8.014,6.59c0.33,0.962,0.457,2.03,0.469,3.053c0.051,4.317,0.029,8.637,0.02,12.954
			c-0.008,4.317-2.52,7.845-6.587,9.286c-3.685,1.305-8.149-0.021-10.548-3.11c-1.421-1.829-2.121-3.892-2.121-6.2
			c0.001-4.304-0.006-8.608,0.002-12.913c0.009-4.452,2.714-8.079,6.986-9.358C16.444,0.956,17.067,0.874,17.762,0.729z
			 M26.67,16.956c0-2.173,0.01-4.346-0.002-6.518c-0.025-4.378-3.332-7.994-7.541-8.256c-4.81-0.3-8.752,3.308-8.803,8.135
			c-0.045,4.43-0.051,8.863,0.001,13.292c0.062,5.229,4.768,9.021,9.819,7.979c3.822-0.789,6.502-4.114,6.523-8.112
			C26.68,21.302,26.67,19.129,26.67,16.956z"/>
		<path fill-rule="evenodd" clip-rule="evenodd" d="M20.127,9.581c0,0.809,0.025,1.617-0.008,2.424
			c-0.033,0.795-0.656,1.424-1.422,1.5c-0.839,0.085-1.564-0.391-1.788-1.18c-0.031-0.106-0.051-0.222-0.051-0.333
			c-0.003-1.63-0.017-3.26,0.007-4.89c0.011-0.688,0.488-1.24,1.132-1.441c0.653-0.202,1.37-0.031,1.749,0.534
			c0.213,0.32,0.268,0.75,0.393,1.132c0.008,0.026,0.002,0.056,0.002,0.085c0,0.722,0,1.445,0,2.168
			C20.135,9.581,20.133,9.581,20.127,9.581z M18.682,9.57c0-0.723,0.007-1.448-0.008-2.171c-0.002-0.117-0.106-0.231-0.164-0.347
			c-0.07,0.116-0.202,0.231-0.203,0.347c-0.014,1.434-0.014,2.869-0.002,4.303c0.002,0.107,0.122,0.214,0.188,0.32
			c0.063-0.106,0.178-0.213,0.181-0.322C18.689,10.991,18.682,10.281,18.682,9.57z"/>
	</g>
</g>
<g id="FLECHAS">
	<g>
		<linearGradient id="SVGID_1_" gradientUnits="userSpaceOnUse" x1="21.4736" y1="-2.4727" x2="21.4736" y2="36.6607">
			<stop  offset="0" style="stop-color:#15D7B4"/>
			<stop  offset="1" style="stop-color:#009073"/>
		</linearGradient>
		<polygon fill="url(#SVGID_1_)" points="10.459,1.379 10.459,11.919 17.686,17.063 10.459,22.209 10.459,32.748 32.487,17.063 		
			"/>
		<g opacity="0.2">
			<polygon fill="#FFFFFF" points="32.351,16.966 10.459,1.379 10.459,11.919 17.548,16.966 			"/>
		</g>
	</g>
</g>
<g id="TLF" display="none">
	<g display="inline">
		<g>
			<g>
				<path fill="#FFFFFF" d="M33.064,26.295l-4.857-4.857c-0.967-0.963-2.569-0.934-3.57,0.067l-2.446,2.446
					c-0.155-0.086-0.314-0.175-0.483-0.269c-1.544-0.856-3.659-2.029-5.885-4.257c-2.231-2.231-3.406-4.35-4.265-5.896
					c-0.091-0.164-0.178-0.322-0.263-0.472l1.642-1.639l0.807-0.809c1.002-1.003,1.031-2.604,0.065-3.571L8.951,2.182
					c-0.964-0.965-2.567-0.936-3.57,0.067L4.012,3.626L4.05,3.663C3.591,4.249,3.207,4.924,2.922,5.652
					C2.659,6.346,2.495,7.007,2.42,7.67c-0.641,5.316,1.789,10.176,8.382,16.768c9.113,9.114,16.458,8.426,16.775,8.393
					c0.689-0.083,1.352-0.248,2.023-0.509c0.723-0.283,1.397-0.665,1.982-1.123l0.029,0.026l1.387-1.358
					C34,28.865,34.028,27.263,33.064,26.295z"/>
			</g>
		</g>
	</g>
</g>
<g id="MENSAJE" display="none">
	<g display="inline">
		<g>
			<path fill="#FFFFFF" d="M30.696,29.121c0.69,0,1.289-0.228,1.798-0.678l-8.703-8.703c-0.209,0.149-0.411,0.296-0.603,0.434
				c-0.651,0.48-1.18,0.854-1.585,1.123c-0.406,0.269-0.945,0.543-1.62,0.822c-0.676,0.28-1.303,0.42-1.886,0.42H18.08h-0.018
				c-0.582,0-1.21-0.14-1.885-0.42c-0.675-0.279-1.215-0.554-1.62-0.822c-0.406-0.269-0.935-0.643-1.586-1.123
				c-0.182-0.134-0.383-0.279-0.601-0.436l-8.705,8.705c0.509,0.45,1.108,0.678,1.798,0.678H30.696z"/>
			<path fill="#FFFFFF" d="M4.807,14.26c-0.651-0.433-1.229-0.931-1.732-1.491V26.01l7.67-7.671
				C9.211,17.268,7.234,15.909,4.807,14.26z"/>
			<path fill="#FFFFFF" d="M31.371,14.26c-2.335,1.581-4.318,2.941-5.953,4.082l7.667,7.668V12.769
				C32.594,13.318,32.022,13.814,31.371,14.26z"/>
			<path fill="#FFFFFF" d="M30.696,5.34H5.464c-0.88,0-1.557,0.298-2.031,0.892C2.959,6.826,2.722,7.568,2.722,8.46
				c0,0.719,0.314,1.5,0.942,2.34c0.628,0.84,1.297,1.5,2.006,1.98c0.389,0.274,1.56,1.088,3.514,2.442
				c1.055,0.73,1.973,1.369,2.761,1.919c0.672,0.468,1.251,0.873,1.73,1.211c0.055,0.037,0.141,0.1,0.256,0.181
				c0.124,0.09,0.28,0.202,0.472,0.341c0.372,0.269,0.68,0.486,0.926,0.651c0.246,0.166,0.543,0.352,0.891,0.558
				c0.349,0.205,0.677,0.36,0.985,0.463c0.309,0.103,0.595,0.155,0.858,0.155h0.018h0.017c0.263,0,0.548-0.053,0.856-0.155
				s0.637-0.257,0.985-0.463s0.646-0.392,0.893-0.558c0.244-0.165,0.554-0.383,0.925-0.651c0.193-0.139,0.35-0.251,0.473-0.34
				c0.115-0.082,0.201-0.144,0.256-0.182c0.374-0.261,0.954-0.664,1.735-1.206c1.421-0.987,3.514-2.44,6.287-4.366
				c0.834-0.583,1.531-1.286,2.091-2.108c0.559-0.823,0.84-1.686,0.84-2.588c0-0.755-0.271-1.4-0.814-1.938S31.438,5.34,30.696,5.34
				z"/>
		</g>
	</g>
</g>
<g id="RELOJ" display="none">
	<g display="inline">
		<path fill="#FFFFFF" d="M17.544,1.026c-8.996,0-16.287,7.291-16.287,16.286c0,8.997,7.291,16.288,16.287,16.288
			c8.994,0,16.285-7.291,16.285-16.288C33.829,8.317,26.538,1.026,17.544,1.026z M18.771,31.084v-1.095
			c0-0.68-0.549-1.23-1.228-1.23c-0.681,0-1.23,0.551-1.23,1.23v1.095C9.656,30.493,4.341,25.167,3.77,18.504h1.059
			c0.679,0,1.229-0.551,1.229-1.23c0-0.679-0.55-1.229-1.229-1.229H3.775C4.382,9.417,9.682,4.129,16.314,3.542V4.56
			c0,0.68,0.549,1.229,1.23,1.229c0.679,0,1.228-0.549,1.228-1.229V3.542c6.634,0.588,11.934,5.876,12.538,12.503h-1.052
			c-0.68,0-1.229,0.55-1.229,1.229c0,0.679,0.55,1.23,1.229,1.23h1.059C30.745,25.167,25.431,30.493,18.771,31.084z"/>
		<path fill="#FFFFFF" d="M24.865,9.378l-7.281,7.629c-0.013,0-0.028-0.001-0.041-0.001c-0.092,0-0.181,0.009-0.267,0.025
			l-6.094-4.604c-0.403-0.302-0.982-0.226-1.289,0.183c-0.307,0.404-0.228,0.984,0.18,1.292l6.091,4.603
			c0.059,0.709,0.653,1.267,1.378,1.267c0.763,0,1.382-0.618,1.382-1.381c0-0.038-0.003-0.073-0.005-0.109l7.279-7.629
			c0.351-0.37,0.338-0.951-0.031-1.304C25.802,8.994,25.217,9.011,24.865,9.378z"/>
	</g>
</g>
<g id="FB" display="none">
	<g display="inline">
		<circle fill="#EAEAEA" cx="17.5" cy="17.5" r="16.518"/>
		<radialGradient id="SVGID_2_" cx="26.5762" cy="7.3354" r="23.6621" gradientUnits="userSpaceOnUse">
			<stop  offset="0" style="stop-color:#0085C7"/>
			<stop  offset="0.6862" style="stop-color:#005A89"/>
		</radialGradient>
		<path fill="url(#SVGID_2_)" d="M32.747,17.5c0,8.421-6.827,15.248-15.247,15.248c-8.421,0-15.248-6.826-15.248-15.248
			c0-2.233,0.479-4.353,1.341-6.263C5.982,5.941,11.312,2.253,17.5,2.253c6.188,0,11.518,3.688,13.906,8.985
			C32.269,13.148,32.747,15.268,32.747,17.5z"/>
		<path opacity="0.1" fill="#FFFFFF" d="M31.406,11.238c-2.389,5.297-7.719,8.985-13.906,8.985c-6.188,0-11.518-3.688-13.906-8.985
			C5.982,5.941,11.312,2.253,17.5,2.253C23.688,2.253,29.018,5.941,31.406,11.238z"/>
		<path fill="#FFFFFF" d="M18.553,12.961c0-1.165,0.991-0.991,0.991-0.991h3.122v-3.47h-4.683c-3.543,0-3.635,3.891-3.635,3.891
			v2.651v0.01l-2.015,0.015v3.172h2.015v9.738h4.205V18.24h3.568l0.545-3.247l-4.113,0.03v-0.03
			C18.553,14.993,18.553,14.126,18.553,12.961z"/>
	</g>
</g>
<g id="INSTA" display="none">
	<g display="inline">
		<circle fill="#EAEAEA" cx="17.356" cy="17.231" r="16.374"/>
		<radialGradient id="SVGID_3_" cx="26.3525" cy="7.1538" r="23.4567" gradientUnits="userSpaceOnUse">
			<stop  offset="0" style="stop-color:#4845A2"/>
			<stop  offset="0.0973" style="stop-color:#4D45A2"/>
			<stop  offset="0.2076" style="stop-color:#5A45A2"/>
			<stop  offset="0.3239" style="stop-color:#7144A1"/>
			<stop  offset="0.3618" style="stop-color:#7A44A1"/>
			<stop  offset="0.4217" style="stop-color:#8143A1"/>
			<stop  offset="0.5068" style="stop-color:#9342A0"/>
			<stop  offset="0.6065" style="stop-color:#B23F9E"/>
			<stop  offset="0.6599" style="stop-color:#C53D9D"/>
			<stop  offset="0.9786" style="stop-color:#F9A326"/>
		</radialGradient>
		<path fill="url(#SVGID_3_)" d="M32.471,17.231c0,8.348-6.767,15.115-15.115,15.115c-8.347,0-15.115-6.767-15.115-15.115
			c0-2.214,0.475-4.314,1.33-6.208c2.368-5.25,7.651-8.907,13.785-8.907c6.132,0,11.417,3.657,13.785,8.907
			C31.994,12.917,32.471,15.017,32.471,17.231z"/>
		<path opacity="0.1" fill="#FFFFFF" d="M31.141,11.022c-2.368,5.25-7.652,8.906-13.785,8.906c-6.134,0-11.417-3.656-13.785-8.906
			c2.368-5.25,7.651-8.907,13.785-8.907C23.488,2.116,28.772,5.772,31.141,11.022z"/>
		<g>
			<g>
				<path fill="#FFFFFF" d="M21.547,25.354h-8.38c-1.736,0-3.148-1.38-3.148-3.076v-8.628c0-1.696,1.412-3.076,3.148-3.076h8.38
					c1.733,0,3.146,1.38,3.146,3.076v8.628C24.692,23.974,23.28,25.354,21.547,25.354z M13.167,11.84
					c-1.038,0-1.881,0.812-1.881,1.809v8.628c0,0.999,0.844,1.81,1.881,1.81h8.38c1.035,0,1.879-0.811,1.879-1.81v-8.628
					c0-0.997-0.844-1.809-1.879-1.809H13.167z"/>
			</g>
			<g>
				<path fill="#FFFFFF" d="M17.356,21.8c-2.115,0-3.836-1.721-3.836-3.836c0-2.116,1.721-3.836,3.836-3.836
					c2.116,0,3.836,1.72,3.836,3.836C21.192,20.079,19.472,21.8,17.356,21.8z M17.356,15.395c-1.417,0-2.569,1.151-2.569,2.569
					s1.152,2.569,2.569,2.569c1.417,0,2.569-1.151,2.569-2.569S18.773,15.395,17.356,15.395z"/>
			</g>
			<circle fill="#FFFFFF" cx="21.473" cy="13.935" r="0.896"/>
		</g>
	</g>
</g>
<g id="TW" display="none">
	<g display="inline">
		<circle fill="#EAEAEA" cx="17.5" cy="17.5" r="16.244"/>
		<radialGradient id="SVGID_4_" cx="26.4258" cy="7.5039" r="23.269" gradientUnits="userSpaceOnUse">
			<stop  offset="0.073" style="stop-color:#59C9C4"/>
			<stop  offset="0.2265" style="stop-color:#52C5C4"/>
			<stop  offset="0.4445" style="stop-color:#40BBC3"/>
			<stop  offset="0.6997" style="stop-color:#21AAC1"/>
			<stop  offset="0.9282" style="stop-color:#0098BF"/>
		</radialGradient>
		<path fill="url(#SVGID_4_)" d="M32.495,17.5c0,8.281-6.715,14.994-14.995,14.994c-8.281,0-14.995-6.713-14.995-14.994
			c0-2.196,0.471-4.28,1.319-6.159c2.349-5.209,7.59-8.836,13.675-8.836c6.086,0,11.326,3.627,13.676,8.836
			C32.022,13.22,32.495,15.305,32.495,17.5z"/>
		<path opacity="0.1" fill="#FFFFFF" d="M31.176,11.341c-2.35,5.209-7.59,8.836-13.676,8.836c-6.085,0-11.327-3.627-13.675-8.836
			c2.349-5.209,7.59-8.836,13.675-8.836C23.586,2.505,28.826,6.132,31.176,11.341z"/>
		<path fill="#FFFFFF" d="M23.687,13.781c0,0,1.219-0.988,1.315-1.8c0,0-0.832,0.6-2.072,0.793c0,0-1.143-1.414-3.271-0.91
			c-2.13,0.503-2.575,2.885-2.323,3.834c0,0-3.699,0.057-6.719-3.369c0,0-1.472,2.458,1.065,4.355c0,0-1.217-0.078-1.489-0.387
			c0,0-0.118,2.575,2.651,3.215c0,0-0.658,0.232-1.51,0.136c0,0,0.716,2.13,3.059,2.188c0,0-2.129,1.762-4.879,1.374
			c0,0,2.897,2.134,6.854,1.291c0.188-0.04,0.379-0.087,0.572-0.142c2.507-0.762,4.675-2.388,5.876-4.745
			c0.079-0.154,0.157-0.312,0.231-0.476c0.521-1.148,0.896-2.568,0.813-4.215c0,0,1.239-0.871,1.626-1.646
			C25.485,13.278,24.692,13.646,23.687,13.781z"/>
	</g>
</g>
</svg>
