<?xml version="1.0" encoding="utf-8"?>
<!-- Generator: Adobe Illustrator 16.0.0, SVG Export Plug-In . SVG Version: 6.00 Build 0)  -->
<!DOCTYPE svg PUBLIC "-//W3C//DTD SVG 1.1//EN" "http://www.w3.org/Graphics/SVG/1.1/DTD/svg11.dtd">
<svg version="1.1" id="Capa_1" xmlns="http://www.w3.org/2000/svg" xmlns:xlink="http://www.w3.org/1999/xlink" x="0px" y="0px"
	 width="85px" height="85px" viewBox="0 0 85 85" enable-background="new 0 0 85 85" xml:space="preserve">
<g>
	<path fill-rule="evenodd" clip-rule="evenodd" fill="#3DA5D0" d="M39.136,1.281c1.975,0,3.95,0,5.924,0
		c0.207,0.053,0.414,0.139,0.624,0.156c3.207,0.243,6.354,0.835,9.374,1.934c15.067,5.485,24.282,16.071,27.528,31.8
		c0.291,1.413,0.436,2.855,0.647,4.285c0,1.975,0,3.948,0,5.923c-0.053,0.209-0.117,0.416-0.157,0.627
		c-0.501,2.682-0.712,5.457-1.549,8.032c-5.12,15.778-15.849,25.424-32.104,28.852c-1.437,0.305-2.908,0.446-4.363,0.662
		c-1.974,0-3.949,0-5.924,0c-0.208-0.051-0.414-0.137-0.625-0.153c-3.208-0.243-6.354-0.838-9.373-1.938
		C14.069,75.978,4.854,65.39,1.61,49.663c-0.29-1.413-0.435-2.855-0.647-4.285c0-1.975,0-3.948,0-5.923
		c0.053-0.209,0.139-0.416,0.156-0.627c0.243-3.208,0.835-6.355,1.934-9.372C8.537,14.385,19.127,5.175,34.855,1.928
		C36.266,1.638,37.708,1.494,39.136,1.281z M2.604,42.433C2.622,64.226,20.31,81.906,42.093,81.91
		c21.783,0.005,39.476-17.676,39.499-39.47C81.613,20.642,63.851,2.885,42.061,2.922C20.267,2.96,2.587,20.665,2.604,42.433z"/>
	<path fill-rule="evenodd" clip-rule="evenodd" fill="#3DA5D0" d="M48.183,27.942c4.304,0,8.606-0.002,12.909,0
		c1.761,0.001,2.895,1.046,2.888,2.647c-0.011,1.549-1.155,2.6-2.858,2.602c-8.605,0.003-17.213,0.003-25.82,0
		c-1.679-0.001-2.866-1.09-2.878-2.614c-0.01-1.521,1.183-2.632,2.85-2.635C39.576,27.939,43.879,27.942,48.183,27.942z"/>
	<path fill-rule="evenodd" clip-rule="evenodd" fill="#3DA5D0" d="M48.204,45.877c-4.304,0-8.607-0.043-12.908,0.022
		c-1.547,0.022-2.834-1.062-2.868-2.624c-0.031-1.512,1.194-2.644,2.854-2.645c8.633-0.006,17.267-0.007,25.901,0
		c1.681,0.002,2.806,1.099,2.797,2.672c-0.012,1.53-1.123,2.569-2.785,2.572C56.866,45.879,52.533,45.877,48.204,45.877z"/>
	<path fill-rule="evenodd" clip-rule="evenodd" fill="#3DA5D0" d="M48.207,55.408c4.414,0,8.826-0.014,13.239,0.007
		c1.329,0.007,2.398,1.002,2.522,2.243c0.146,1.41-0.63,2.56-1.981,2.896c-0.34,0.085-0.704,0.1-1.057,0.1
		c-8.468,0.007-16.938,0.007-25.406,0.007c-0.165-0.002-0.33,0.002-0.494-0.005c-1.479-0.078-2.613-1.231-2.608-2.648
		c0.005-1.431,1.133-2.587,2.628-2.594c4.386-0.021,8.771-0.009,13.156-0.009C48.207,55.406,48.207,55.406,48.207,55.408z"/>
	<path fill-rule="evenodd" clip-rule="evenodd" fill="#3DA5D0" d="M23.788,29.83c0.999-1.075,1.906-2.096,2.865-3.068
		c0.788-0.798,1.614-1.561,2.464-2.293c0.683-0.588,1.062-0.462,1.414,0.377c0.544,1.295,0.446,1.294-0.476,2.319
		c-1.773,1.972-3.457,4.027-5.15,6.072c-0.65,0.785-0.906,0.835-1.595,0.085c-0.909-0.989-1.789-2.004-2.715-2.975
		c-0.434-0.454-0.451-0.784,0.023-1.228c1.66-1.559,1.317-1.373,2.622,0.096C23.402,29.398,23.564,29.58,23.788,29.83z"/>
	<path fill-rule="evenodd" clip-rule="evenodd" fill="#3DA5D0" d="M23.78,42.423c0.324-0.35,0.607-0.677,0.914-0.982
		c1.492-1.487,2.971-2.986,4.494-4.438c0.604-0.576,0.93-0.458,1.286,0.312c0.609,1.315,0.515,1.382-0.447,2.459
		c-1.747,1.957-3.417,3.983-5.086,6.008c-0.705,0.854-0.904,0.91-1.648,0.103c-0.928-1.004-1.825-2.04-2.758-3.041
		c-0.347-0.372-0.384-0.64-0.012-1.036c1.43-1.523,1.474-1.533,2.791,0.064C23.45,42.038,23.591,42.202,23.78,42.423z"/>
	<path fill-rule="evenodd" clip-rule="evenodd" fill="#3DA5D0" d="M23.769,56.898c1.141-1.216,2.189-2.372,3.284-3.48
		c0.691-0.701,1.437-1.353,2.189-1.988c0.57-0.484,0.854-0.392,1.193,0.289c0.658,1.316,0.554,1.466-0.406,2.535
		c-1.717,1.913-3.364,3.893-4.997,5.877c-0.808,0.986-1.012,1.037-1.892,0.074c-0.869-0.952-1.71-1.93-2.595-2.864
		c-0.389-0.411-0.371-0.696,0.021-1.098c1.441-1.478,1.429-1.486,2.738,0.098C23.442,56.506,23.583,56.673,23.769,56.898z"/>
</g>
</svg>
